<?xml version="1.0" encoding="utf-8"?>
<!-- Generator: Adobe Illustrator 24.0.1, SVG Export Plug-In . SVG Version: 6.00 Build 0)  -->
<svg version="1.1" id="Layer_1" xmlns="http://www.w3.org/2000/svg" xmlns:xlink="http://www.w3.org/1999/xlink" x="0px" y="0px"
	 viewBox="0 0 125 125" style="enable-background:new 0 0 125 125;" xml:space="preserve">
<g>
	<path class="st0" d="M87.76,0H37.24C16.7,0,0,16.7,0,37.24v50.52C0,108.3,16.7,125,37.24,125h50.52C108.3,125,125,108.3,125,87.76
		V37.24C125,16.7,108.29,0,87.76,0z M112.43,87.76c0,13.62-11.04,24.66-24.66,24.66H37.24c-13.62,0-24.66-11.04-24.66-24.66V37.24
		c0-13.62,11.04-24.66,24.66-24.66h50.52c13.62,0,24.66,11.04,24.66,24.66V87.76L112.43,87.76z"/>
	<path class="st0" d="M62.5,30.17c-17.83,0-32.33,14.5-32.33,32.33s14.5,32.33,32.33,32.33s32.33-14.5,32.33-32.33
		S80.33,30.17,62.5,30.17z M62.5,82.25c-10.91,0-19.75-8.84-19.75-19.75s8.84-19.75,19.75-19.75c10.91,0,19.75,8.84,19.75,19.75
		C82.25,73.41,73.41,82.25,62.5,82.25z"/>
	<circle class="st0" cx="94.89" cy="30.41" r="7.75"/>
</g>
</svg>
