<?xml version="1.0" encoding="utf-8"?>
<!-- Generator: Adobe Illustrator 24.0.1, SVG Export Plug-In . SVG Version: 6.00 Build 0)  -->
<svg version="1.1" id="Capa_1" xmlns="http://www.w3.org/2000/svg" xmlns:xlink="http://www.w3.org/1999/xlink" x="0px" y="0px"
	 viewBox="0 0 512 512" style="enable-background:new 0 0 512 512;" xml:space="preserve">
<style type="text/css">
	.st0{fill:#212121;}
</style>
<g>
	<path class="st0" d="M502.25,182.27l-57.76-31.16v-42.87c0-7.53-6.13-13.66-13.66-13.66h-25c-4.14,0-7.49,3.35-7.49,7.49
		s3.35,7.49,7.49,7.49h23.68v111.41l-66.43,39.39c-3.56,2.11-4.73,6.7-2.62,10.26c1.4,2.36,3.89,3.67,6.45,3.67
		c1.3,0,2.61-0.34,3.81-1.05l126.28-74.88c0.01,0.08,0.02,0.16,0.02,0.24v242.88c0,1.16-0.56,2.18-1.42,2.84L313.23,307.34
		l29.16-17.29c3.56-2.11,4.73-6.7,2.62-10.26c-2.11-3.56-6.7-4.73-10.26-2.62l-68.53,40.64c-6.41,3.8-14.36,3.8-20.77,0
		l-163.3-96.83V109.56h291.77c4.14,0,7.49-3.35,7.49-7.49s-3.35-7.49-7.49-7.49h-34.21l-74.89-40.4c-5.52-2.98-12.11-2.98-17.63,0
		l-74.89,40.4H80.83c-7.53,0-13.66,6.13-13.66,13.66v43.05L9.75,182.27C3.74,185.51,0,191.77,0,198.61v242.88
		c0,10.24,8.33,18.56,18.56,18.56h474.87c10.24,0,18.56-8.33,18.56-18.56V198.61C512,191.77,508.26,185.51,502.25,182.27
		L502.25,182.27z M254.3,67.36c1.07-0.57,2.34-0.57,3.41,0l50.45,27.22H203.84L254.3,67.36z M444.49,168.13l38.82,20.94
		l-38.82,23.02V168.13z M255.83,335.63c6.23,0,12.46-1.65,18.02-4.94l25.44-15.08l172.37,129.47H41.01l37.35-28.05
		c3.31-2.48,3.97-7.18,1.49-10.49c-2.48-3.31-7.18-3.98-10.49-1.49l-52.61,39.52c-1.05-0.63-1.77-1.76-1.77-3.07V198.61
		c0-0.02,0-0.03,0-0.05l184.01,109.11l-104.1,78.19c-3.31,2.48-3.97,7.18-1.49,10.49c1.47,1.96,3.72,2.99,5.99,2.99
		c1.56,0,3.14-0.49,4.49-1.5l109.04-81.91l24.88,14.75C243.37,333.98,249.6,335.63,255.83,335.63L255.83,335.63z M67.17,212.09
		l-38.66-22.92l38.66-20.86V212.09z"/>
	<path class="st0" d="M381.41,221.41c0-4.14-3.35-7.49-7.49-7.49H140.9c-4.14,0-7.49,3.35-7.49,7.49s3.35,7.49,7.49,7.49h233.02
		C378.05,228.9,381.41,225.55,381.41,221.41z"/>
	<path class="st0" d="M188.34,249.2c-4.14,0-7.49,3.35-7.49,7.49c0,4.14,3.35,7.49,7.49,7.49h138.15c4.14,0,7.49-3.35,7.49-7.49
		s-3.35-7.49-7.49-7.49L188.34,249.2z"/>
</g>
</svg>
