<svg xmlns="http://www.w3.org/2000/svg" width="45.218" height="45.218" viewBox="0 0 45.218 45.218">
  <g id="icon-discount" transform="translate(0 0)">
    <path id="Caminho_6112" data-name="Caminho 6112" d="M176.9,133.61l6.245-18.735a1.325,1.325,0,1,0-2.514-.838l-6.245,18.735a1.325,1.325,0,1,0,2.514.838Z" transform="translate(-158.926 -103.14)"/>
    <path id="Caminho_6113" data-name="Caminho 6113" d="M268.507,197.151a3.974,3.974,0,1,0-3.974-3.974A3.979,3.979,0,0,0,268.507,197.151Zm0-5.3a1.325,1.325,0,1,1-1.325,1.325A1.326,1.326,0,0,1,268.507,191.853Z" transform="translate(-241.17 -172.493)"/>
    <path id="Caminho_6114" data-name="Caminho 6114" d="M98.8,189.2a3.974,3.974,0,1,0,3.974,3.974A3.979,3.979,0,0,0,98.8,189.2Zm0,5.3a1.325,1.325,0,1,1,1.325-1.325A1.326,1.326,0,0,1,98.8,194.5Z" transform="translate(-86.452 -172.493)"/>
    <path id="Caminho_6115" data-name="Caminho 6115" d="M44.953,16.427l-4.62-6.159.18-1.261a1.325,1.325,0,0,0-.375-1.124l-2.81-2.81,2.81-2.81A1.325,1.325,0,0,0,38.266.388L35.456,3.2,32.645.388A1.326,1.326,0,0,0,31.521.013L18.407,1.887a1.325,1.325,0,0,0-.749.375L1.421,18.5a4.863,4.863,0,0,0,0,6.869L15.159,39.107a4.846,4.846,0,0,0,.914.717v.537a4.863,4.863,0,0,0,4.857,4.857h19.43a4.863,4.863,0,0,0,4.857-4.857V17.222a1.325,1.325,0,0,0-.265-.795ZM3.294,23.494a2.21,2.21,0,0,1,0-3.123L19.219,4.447,31.24,2.73l2.342,2.342L31.709,6.945l-.937-.937A1.325,1.325,0,0,0,28.9,7.882l3.747,3.747a1.325,1.325,0,0,0,1.873-1.873l-.937-.937,1.873-1.873L37.8,9.287,36.08,21.309,20.155,37.233a2.208,2.208,0,0,1-3.123,0ZM42.569,40.361a2.21,2.21,0,0,1-2.208,2.208H20.931a2.21,2.21,0,0,1-2.2-2.045,4.838,4.838,0,0,0,3.3-1.417L38.266,22.87a1.325,1.325,0,0,0,.375-.749L39.8,13.977l2.765,3.687Z"/>
  </g>
</svg>
