<svg xmlns="http://www.w3.org/2000/svg" width="33.215" height="46.067" viewBox="0 0 33.215 46.067">
  <g id="icon-private" transform="translate(-65.8)">
    <g id="Grupo_1506" data-name="Grupo 1506" transform="translate(65.8)">
      <g id="Grupo_1505" data-name="Grupo 1505" transform="translate(0)">
        <path id="Caminho_6116" data-name="Caminho 6116" d="M94.61,19.591V12.3a12.232,12.232,0,0,0-3.653-8.79A11.843,11.843,0,0,0,82.549,0h-.156a12.267,12.267,0,0,0-12.2,12.3v7.3A4.982,4.982,0,0,0,65.8,24.6V40.988a5.048,5.048,0,0,0,5.01,5.078H94a5.048,5.048,0,0,0,5.01-5.078V24.6A5,5,0,0,0,94.61,19.591ZM72.138,12.3h.01A10.335,10.335,0,0,1,82.4,1.924h.01a10.116,10.116,0,0,1,7.168,2.949A10.342,10.342,0,0,1,92.647,12.3V19.6H90.5V12.3a8.229,8.229,0,0,0-2.432-5.909,7.918,7.918,0,0,0-5.6-2.324h-.059a8.178,8.178,0,0,0-8.125,8.223V19.6H72.138Zm16.417,0V19.6H76.25V12.3a6.219,6.219,0,0,1,6.172-6.27h.059a5.99,5.99,0,0,1,4.229,1.758A6.3,6.3,0,0,1,88.555,12.3Zm8.594,28.722h0a3.1,3.1,0,0,1-3.1,3.1h-23.2a3.1,3.1,0,0,1-3.1-3.1V24.65a3.1,3.1,0,0,1,3.1-3.1h23.2a3.1,3.1,0,0,1,3.1,3.1Z" transform="translate(-65.8)"/>
      </g>
    </g>
    <g id="Grupo_1508" data-name="Grupo 1508" transform="translate(78.877 29.679)">
      <g id="Grupo_1507" data-name="Grupo 1507">
        <path id="Caminho_6117" data-name="Caminho 6117" d="M206.6,306.449a3.521,3.521,0,1,0-4.356,4.356v2.735a.977.977,0,0,0,1.953,0V310.8A3.512,3.512,0,0,0,206.6,306.449Zm-3.379,2.539a1.572,1.572,0,1,1,1.572-1.572A1.571,1.571,0,0,1,203.226,308.988Z" transform="translate(-199.7 -303.9)"/>
      </g>
    </g>
  </g>
</svg>
