<?xml version="1.0" encoding="utf-8"?>
<!-- Generator: Adobe Illustrator 24.0.1, SVG Export Plug-In . SVG Version: 6.00 Build 0)  -->
<svg version="1.1" id="Camada_1" xmlns="http://www.w3.org/2000/svg" xmlns:xlink="http://www.w3.org/1999/xlink" x="0px" y="0px"
	 viewBox="0 0 237.84 211.53" style="enable-background:new 0 0 237.84 211.53;" xml:space="preserve">

<g>
	<path class="st0" d="M235.37,49.2c-2.18-2.76-5.43-4.34-8.91-4.34c-8.02,0-55.76-0.2-101.92-0.4l-0.46,0
		c-24.7-0.11-49.22-0.21-67.67-0.28l-2.29-0.01l-9.07-33.64C43.37,4.33,37.71,0,31.28,0H4.15C1.86,0,0,1.86,0,4.15
		s1.86,4.15,4.15,4.15h27.13c2.69,0,5.06,1.81,5.76,4.4l33.51,124.34l-3.77,0.14c-4.95,0.18-9.59,2.22-13.06,5.74
		c-3.67,3.73-5.65,8.66-5.56,13.9c0.18,10.47,8.85,18.98,19.32,18.98h15.17l-2.04,4.29c-1.41,2.96-2.13,6.14-2.13,9.43
		c0,12.14,9.88,22.02,22.02,22.02s22.02-9.88,22.02-22.02c0-3.3-0.72-6.47-2.13-9.43l-2.04-4.29h54.64l-2.04,4.29
		c-1.41,2.96-2.13,6.13-2.13,9.43c0,12.14,9.88,22.02,22.02,22.02s22.02-9.88,22.02-22.02c0-3.42-0.77-6.7-2.29-9.76l-1.53-3.08
		l3.26-1.1c1.69-0.57,2.83-2.15,2.83-3.93c0-2.29-1.86-4.15-4.15-4.15H67.49l-0.05,0l-0.1,0c-7.07-0.36-10.76-5.8-10.76-10.98
		c0-5.23,3.7-10.71,10.76-11.06l0.16,0c10.91,0.04,29.36,0.06,58.07,0.06l65.07-0.01c5.77,0,10.88,0,15.1,0
		c6.95,0,12.89-4.73,14.46-11.5l17.35-75.12C238.33,55.47,237.54,51.94,235.37,49.2z M141.53,99.28v37.92h-26.78l-5.04-37.92H141.53
		z M101.34,99.28l5.05,37.92H84.45c-3.09,0-5.82-2.08-6.62-5.06l-8.86-32.85H101.34z M103.5,52.67l38.02,0.15v38.17H108.6
		L103.5,52.67z M100.23,90.99h-33.5l-0.6-2.22v0l-9.78-36.29l38.78,0.16L100.23,90.99z M219.7,99.28l-7.58,32.85
		c-0.69,2.99-3.31,5.07-6.38,5.07h-20.78l5-37.92H219.7z M181.6,99.28l-5,37.92h-26.77V99.28H181.6z M187.7,53.01l-5.01,37.98
		h-32.87V52.85L187.7,53.01z M196.07,53.04l30.41,0.12c0.94,0.02,1.81,0.46,2.39,1.19c0.59,0.74,0.81,1.69,0.61,2.62l-7.86,34.01
		h-30.56L196.07,53.04z M86.79,189.51c0-7.56,6.15-13.72,13.71-13.72c7.57,0.01,13.74,6.16,13.74,13.72
		c0,7.57-6.16,13.72-13.72,13.72S86.79,197.08,86.79,189.51z M190.67,175.79h0.4c7.44,0.12,13.5,6.27,13.5,13.72
		c0,7.57-6.16,13.72-13.72,13.72s-13.72-6.16-13.72-13.72c0-7.44,6.06-13.6,13.5-13.72l-0.02-1L190.67,175.79z"/>
</g>
</svg>
